<?xml version="1.0" standalone="no"?>
<!DOCTYPE svg PUBLIC "-//W3C//DTD SVG 20010904//EN"
 "http://www.w3.org/TR/2001/REC-SVG-20010904/DTD/svg10.dtd">
<svg version="1.0" xmlns="http://www.w3.org/2000/svg"
 width="120.000000pt" height="120.000000pt" viewBox="0 0 120.000000 120.000000"
 preserveAspectRatio="xMidYMid meet">

<g transform="translate(0.000000,120.000000) scale(0.100000,-0.100000)"
fill="#000000" stroke="none">
<path d="M0 600 l0 -600 600 0 600 0 0 150 0 150 -50 0 c-39 0 -52 4 -58 18
-5 11 -18 17 -42 17 -29 0 -37 -5 -48 -30 -7 -16 -12 -43 -12 -60 3 -48 1 -55
-16 -55 -8 0 -13 -4 -10 -9 3 -4 -6 -19 -19 -31 -14 -13 -25 -19 -26 -14 0 5
-4 0 -9 -12 -10 -26 -59 -34 -210 -34 -147 0 -201 8 -207 31 -3 11 -9 17 -13
14 -4 -2 -18 7 -30 20 -13 14 -19 25 -14 26 5 0 -1 4 -13 9 -20 8 -23 17 -24
62 0 29 -3 60 -7 68 -10 22 -75 20 -84 -3 -4 -9 -18 -22 -30 -27 -13 -5 -19
-9 -15 -9 5 -1 1 -11 -7 -23 -12 -16 -16 -47 -16 -110 l0 -88 -42 0 c-24 0
-48 4 -54 8 -8 5 -12 74 -12 211 -1 144 -5 207 -13 212 -6 4 -29 10 -50 13
l-39 6 0 55 c0 44 5 59 24 78 51 51 96 21 96 -64 0 -38 2 -40 28 -37 26 3 27
4 30 79 l3 75 -42 43 c-39 40 -41 45 -36 86 6 42 5 45 -48 98 -50 50 -55 59
-55 100 0 53 6 56 100 63 103 8 104 6 110 -184 l5 -157 80 0 80 0 6 40 c6 36
6 37 8 9 1 -29 5 -32 36 -36 28 -3 35 -1 35 13 0 12 -9 19 -27 21 -20 2 -28 8
-27 21 1 9 -4 17 -11 17 -7 0 -16 7 -19 16 -8 20 -8 113 0 152 6 28 11 32 50
38 25 3 49 14 54 23 5 9 10 11 10 4 0 -17 90 78 91 96 0 11 2 12 6 4 3 -9 30
-13 84 -13 56 0 79 4 80 13 0 6 9 -5 18 -26 10 -21 21 -38 25 -38 18 3 77 -30
71 -39 -6 -10 0 -14 48 -24 15 -4 25 -11 22 -16 -4 -6 1 -13 9 -16 13 -5 16
-25 16 -110 l0 -104 -40 0 c-32 0 -40 -4 -40 -18 0 -14 7 -17 39 -14 21 2 42
-1 45 -7 5 -7 45 -11 107 -11 l99 0 0 230 0 230 -600 0 -600 0 0 -600z m368
-287 c-10 -2 -26 -2 -35 0 -10 3 -2 5 17 5 19 0 27 -2 18 -5z m700 0 c-10 -2
-26 -2 -35 0 -10 3 -2 5 17 5 19 0 27 -2 18 -5z"/>
<path d="M634 985 c-4 -8 -9 -13 -14 -10 -4 2 -12 -7 -18 -20 -7 -14 -19 -25
-28 -25 -11 0 -14 -5 -10 -16 3 -9 7 -25 7 -37 1 -14 4 -9 9 13 l7 35 2 -38
c1 -38 4 -40 54 -51 15 -4 25 -11 22 -16 -4 -6 11 -10 35 -10 24 0 39 4 35 10
-3 5 7 12 22 16 50 11 53 13 54 51 l2 38 7 -35 c5 -22 8 -27 9 -13 0 12 4 28
7 37 4 11 1 16 -10 16 -9 0 -21 11 -28 25 -6 13 -14 22 -18 20 -5 -3 -10 2
-14 10 -4 11 -21 15 -66 15 -45 0 -62 -4 -66 -15z"/>
<path d="M370 470 c0 -11 5 -20 10 -20 6 0 10 9 10 20 0 11 -4 20 -10 20 -5 0
-10 -9 -10 -20z"/>
<path d="M1010 470 c0 -11 5 -20 10 -20 6 0 10 9 10 20 0 11 -4 20 -10 20 -5
0 -10 -9 -10 -20z"/>
<path d="M260 420 c0 -5 7 -10 15 -10 8 0 15 5 15 10 0 6 -7 10 -15 10 -8 0
-15 -4 -15 -10z"/>
<path d="M1110 420 c0 -5 7 -10 15 -10 8 0 15 5 15 10 0 6 -7 10 -15 10 -8 0
-15 -4 -15 -10z"/>
<path d="M569 383 c-1 -5 -2 -23 -4 -40 l-3 -33 138 0 138 0 -4 33 c-1 17 -3
35 -3 40 -1 9 -261 9 -262 0z"/>
</g>
</svg>
